<?xml version="1.0" encoding="UTF-8" standalone="no"?>
<!-- Created with Inkscape (http://www.inkscape.org/) -->

<svg
   xmlns:dc="http://purl.org/dc/elements/1.1/"
   xmlns:cc="http://creativecommons.org/ns#"
   xmlns:rdf="http://www.w3.org/1999/02/22-rdf-syntax-ns#"
   xmlns:svg="http://www.w3.org/2000/svg"
   xmlns="http://www.w3.org/2000/svg"
   xmlns:sodipodi="http://sodipodi.sourceforge.net/DTD/sodipodi-0.dtd"
   xmlns:inkscape="http://www.inkscape.org/namespaces/inkscape"
   width="744.09448819"
   height="1052.3622047"
   id="svg2"
   version="1.1"
   inkscape:version="0.48.4 r9939"
   sodipodi:docname="moonlight_welcome.svg">
  <defs
     id="defs4" />
  <sodipodi:namedview
     id="base"
     pagecolor="#ffffff"
     bordercolor="#666666"
     borderopacity="1.0"
     inkscape:pageopacity="0.0"
     inkscape:pageshadow="2"
     inkscape:zoom="0.7"
     inkscape:cx="623.40646"
     inkscape:cy="853.13669"
     inkscape:document-units="px"
     inkscape:current-layer="layer1"
     showgrid="false"
     showguides="true"
     inkscape:guide-bbox="true"
     inkscape:snap-bbox="true"
     inkscape:snap-center="true"
     inkscape:snap-bbox-edge-midpoints="true"
     inkscape:bbox-nodes="true"
     inkscape:window-width="1920"
     inkscape:window-height="1024"
     inkscape:window-x="0"
     inkscape:window-y="23"
     inkscape:window-maximized="1"
     inkscape:snap-global="true" />
  <metadata
     id="metadata7">
    <rdf:RDF>
      <cc:Work
         rdf:about="">
        <dc:format>image/svg+xml</dc:format>
        <dc:type
           rdf:resource="http://purl.org/dc/dcmitype/StillImage" />
        <dc:title></dc:title>
      </cc:Work>
    </rdf:RDF>
  </metadata>
  <g
     inkscape:label="Layer 1"
     inkscape:groupmode="layer"
     id="layer1">
    <rect
       style="fill:#ffffff;fill-opacity:1;stroke:none"
       id="rect3846"
       width="368.85712"
       height="229.30464"
       x="-2.7533531e-14"
       y="864.47382" />
    <rect
       y="864.47382"
       x="368.85712"
       height="229.30464"
       width="368.85712"
       id="rect3850"
       style="fill:#ffffff;fill-opacity:1;stroke:none" />
    <text
       sodipodi:linespacing="125%"
       id="text3993"
       y="248.08159"
       x="824.80157"
       style="font-size:100px;font-style:normal;font-variant:normal;font-weight:300;font-stretch:normal;line-height:125%;letter-spacing:0px;word-spacing:0px;fill:#000000;fill-opacity:1;stroke:none;font-family:Open Sans;-inkscape-font-specification:Open Sans Light"
       xml:space="preserve"><tspan
         y="248.08159"
         x="824.80157"
         id="tspan3995"
         sodipodi:role="line" /></text>
    <g
       transform="translate(-920.72283,-653.87105)"
       id="g4172"
       inkscape:export-filename="/home/lightstar/ACME/Moonlight/moonlight_welcome/logowelcomebig.png"
       inkscape:export-xdpi="91.080002"
       inkscape:export-ydpi="91.080002">
      <rect
         style="fill:#2c3e50;fill-opacity:1;stroke:none"
         id="rect3979"
         width="722"
         height="250"
         x="933.61053"
         y="726.05139" />
      <g
         id="g3981"
         transform="translate(925.75344,374.10683)">
        <path
           transform="matrix(1.0306748,0,0,1.0769231,194.74672,-236.33554)"
           d="m 227.14286,630.2193 c 0,30.77015 -26.06342,55.71429 -58.21429,55.71429 -32.15086,0 -58.21428,-24.94414 -58.21428,-55.71429 0,-30.77015 26.06342,-55.71429 58.21428,-55.71429 32.15087,0 58.21429,24.94414 58.21429,55.71429 z"
           sodipodi:ry="55.714287"
           sodipodi:rx="58.214287"
           sodipodi:cy="630.2193"
           sodipodi:cx="168.92857"
           id="path3983"
           style="fill:#ffffff;fill-opacity:1;stroke:none"
           sodipodi:type="arc" />
        <g
           transform="matrix(1.2395341,0,0,1.2395341,-88.549722,-90.363854)"
           id="g3985">
          <path
             style="fill:#2980b9;fill-opacity:1;stroke:none"
             d="M 359.64286,432.71932 355,459.40263 l -18.04113,0 11.30006,-62.21901 z"
             id="path3987"
             inkscape:connector-curvature="0"
             sodipodi:nodetypes="ccccc" />
          <path
             style="fill:#2980b9;fill-opacity:1;stroke:none"
             d="M 351.07143,396.91575 368.85714,451.46932 380,417.36218 z"
             id="path3989"
             inkscape:connector-curvature="0" />
          <path
             style="fill:#2980b9;fill-opacity:1;stroke:none"
             d="m 382.84782,459.40263 18.22361,0.0131 -11.51786,-61.07143 c 0,0 -11.51785,34.64286 -11.51785,35 0,0.35715 4.8121,26.05831 4.8121,26.05831 z"
             id="path3991"
             inkscape:connector-curvature="0"
             sodipodi:nodetypes="cccsc" />
        </g>
      </g>
      <text
         xml:space="preserve"
         style="font-size:100px;font-style:normal;font-variant:normal;font-weight:normal;font-stretch:normal;line-height:125%;letter-spacing:0px;word-spacing:0px;fill:#000000;fill-opacity:1;stroke:none;font-family:Open Sans;-inkscape-font-specification:Open Sans"
         x="1179.5714"
         y="933.62213"
         id="text3997"
         sodipodi:linespacing="125%"><tspan
           sodipodi:role="line"
           id="tspan3999"
           x="1179.5714"
           y="933.62213"
           style="font-size:50px;font-style:normal;font-variant:normal;font-weight:300;font-stretch:normal;text-align:start;line-height:125%;writing-mode:lr-tb;text-anchor:start;fill:#ffffff;fill-opacity:1;font-family:Open Sans;-inkscape-font-specification:Open Sans Light">Moonlight</tspan></text>
    </g>
    <g
       transform="translate(-920.72283,-653.87105)"
       id="g4205"
       inkscape:export-filename="/home/lightstar/ACME/Moonlight/moonlight_welcome/logo-facebook.png"
       inkscape:export-xdpi="89.750694"
       inkscape:export-ydpi="89.750694">
      <rect
         style="fill:#2c3e50;fill-opacity:1;stroke:none"
         id="rect4189"
         width="180.5"
         height="100"
         x="1475.1106"
         y="1076.0514" />
      <path
         id="path4003"
         style="fill:#ffffff;fill-opacity:1;fill-rule:evenodd"
         d="m 1561.1256,1142.3714 h 6.744 v -16.322 h 4.499 l 0.596,-5.624 h -5.095 l 0.01,-2.816 c 0,-1.466 0.14,-2.253 2.244,-2.253 h 2.812 v -5.625 h -4.5 c -5.405,0 -7.307,2.729 -7.307,7.317 v 3.377 h -3.369 v 5.625 h 3.369 v 16.321 z m 4.235,13.68 c -16.568,0 -30,-13.432 -30,-30 0,-16.569 13.432,-30 30,-30 16.568,0 30,13.431 30,30 0,16.568 -13.432,30 -30,30 z"
         inkscape:connector-curvature="0" />
    </g>
    <g
       transform="translate(-920.72283,-653.87105)"
       id="g4191"
       inkscape:export-filename="/home/lightstar/ACME/Moonlight/moonlight_welcome/logo-mail.png"
       inkscape:export-xdpi="89.750694"
       inkscape:export-ydpi="89.750694">
      <rect
         y="1076.0514"
         x="933.6106"
         height="100"
         width="180.5"
         id="rect4183"
         style="fill:#2c3e50;fill-opacity:1;stroke:none" />
      <g
         id="g4009"
         transform="translate(566.36061,400.11778)">
        <path
           transform="matrix(1.5700934,0,0,2.3013699,-265.58409,-936.48897)"
           d="m 479.64285,722.36218 c 0,7.19943 -8.55456,13.03572 -19.10714,13.03572 -10.55259,0 -19.10715,-5.83629 -19.10715,-13.03572 0,-7.19942 8.55456,-13.03571 19.10715,-13.03571 10.55258,0 19.10714,5.83629 19.10714,13.03571 z"
           sodipodi:ry="13.035714"
           sodipodi:rx="19.107143"
           sodipodi:cy="722.36218"
           sodipodi:cx="460.53571"
           id="path4011"
           style="fill:#ffffff;fill-opacity:1;stroke:none"
           sodipodi:type="arc" />
        <path
           inkscape:connector-curvature="0"
           id="path4013"
           d="m 441.56248,725.93361 0,-11.96428 15.9375,0 15.9375,0 0,11.96428 0,11.96429 -15.9375,0 -15.9375,0 0,-11.96429 z m 29.91072,0.56943 c 0,-7.60234 -0.0225,-9.5025 -0.11161,-9.43367 -0.0614,0.0474 -3.16518,2.52955 -6.89732,5.51588 -3.73214,2.98633 -6.83309,5.46618 -6.89098,5.51077 -0.072,0.0555 -2.28764,-1.66488 -7.00893,-5.44207 -3.79702,-3.03773 -6.95388,-5.55381 -7.01527,-5.5913 -0.089,-0.0543 -0.11161,1.85787 -0.11161,9.44605 l 0,9.5142 14.01786,0 14.01786,0 0,-9.51986 0,0 z m -7.84238,-10.54772 c -3.33974,-0.0126 -8.83767,-0.0126 -12.21762,0 l -6.14536,0.0229 6.09768,4.88285 6.09767,4.88285 6.11994,-4.88285 6.11995,-4.88285 -6.07226,-0.0229 z"
           style="fill:#2c3e50;fill-opacity:1;stroke:none" />
      </g>
    </g>
    <g
       transform="translate(-920.72283,-653.87105)"
       id="g4197"
       inkscape:export-filename="/home/lightstar/ACME/Moonlight/moonlight_welcome/logo-gplus.png"
       inkscape:export-xdpi="89.750694"
       inkscape:export-ydpi="89.750694">
      <rect
         style="fill:#2c3e50;fill-opacity:1;stroke:none"
         id="rect4185"
         width="180.5"
         height="100"
         x="1114.1106"
         y="1076.0514" />
      <path
         id="path4005"
         style="fill:#ffffff;fill-opacity:1;fill-rule:evenodd"
         d="m 1203.3236,1127.0534 c 1.609,-1.608 1.734,-3.845 1.734,-5.102 0,-5.051 -2.99,-12.875 -8.796,-12.875 -1.81,0 -3.77,0.91 -4.9,2.31 -1.181,1.468 -1.533,3.353 -1.533,5.162 0,4.7 2.714,12.465 8.746,12.465 1.734,0 3.619,-0.855 4.749,-1.96 z m -28.963,-1.002 c 0,7.405 2.683,14.184 7.129,19.415 0.839,-1.41 2.14,-2.797 4.066,-3.937 4.348,-2.664 10.204,-3.017 13.37,-3.218 -0.98,-1.257 -2.111,-2.589 -2.111,-4.774 0,-1.182 0.352,-1.885 0.704,-2.715 -0.779,0.076 -1.533,0.151 -2.237,0.151 -7.414,0 -11.611,-5.529 -11.611,-10.983 0,-3.217 1.483,-6.791 4.473,-9.377 3.996,-3.284 8.746,-3.845 12.516,-3.845 h 14.401 l -4.474,2.516 h -4.322 c 1.607,1.329 4.951,4.127 4.951,9.449 0,5.178 -2.941,7.615 -5.856,9.926 -0.93,0.906 -1.96,1.886 -1.96,3.418 0,1.533 1.03,2.389 1.81,3.017 l 2.513,1.96 c 3.092,2.564 5.881,4.951 5.881,9.777 0,3.182 -1.484,6.376 -4.379,8.826 -1.557,0.255 -3.153,0.388 -4.781,0.393 2.938,-1.289 4.461,-3.646 4.461,-6.48 0,-3.568 -2.287,-5.453 -7.615,-9.248 -0.553,-0.051 -0.905,-0.051 -1.608,-0.051 -0.628,0 -4.398,0.127 -7.338,1.106 -1.533,0.553 -6.006,2.237 -6.006,7.213 0,0.541 0.058,1.065 0.17,1.569 -7.372,-5.463 -12.147,-14.228 -12.147,-24.108 z m 57.73,-11.468 0,0 c 0.44,1.063 0.821,2.159 1.139,3.281 -0.317,-1.122 -0.698,-2.217 -1.139,-3.281 l 0,0 0,0 0,0 z m -27.73,41.468 c -16.568,0 -30,-13.432 -30,-30 0,-16.569 13.432,-30 30,-30 12.507,0 23.227,7.653 27.73,18.532 l 0,0 h -5.966 v -7.814 h -3.349 v 7.814 h -7.814 v 3.281 h 7.814 v 7.882 h 3.349 v -7.882 h 7.104 c 0.737,2.602 1.132,5.349 1.132,8.187 0,16.568 -13.432,30 -30,30 z"
         inkscape:connector-curvature="0" />
    </g>
    <g
       transform="translate(-920.72283,-653.87105)"
       id="g4201"
       inkscape:export-filename="/home/lightstar/ACME/Moonlight/moonlight_welcome/logo-twitter.png"
       inkscape:export-xdpi="89.750694"
       inkscape:export-ydpi="89.750694">
      <rect
         y="1076.0514"
         x="1294.6106"
         height="100"
         width="180.5"
         id="rect4187"
         style="fill:#2c3e50;fill-opacity:1;stroke:none" />
      <path
         id="path4001"
         style="fill:#ffffff;fill-opacity:1;fill-rule:evenodd"
         d="m 1389.0276,1114.3344 c -2.619,0.953 -4.274,3.411 -4.086,6.101 l 0.063,1.038 -1.048,-0.127 c -3.813,-0.487 -7.145,-2.139 -9.974,-4.915 l -1.383,-1.377 -0.356,1.017 c -0.754,2.267 -0.272,4.661 1.299,6.271 0.838,0.89 0.649,1.017 -0.796,0.487 -0.503,-0.169 -0.943,-0.296 -0.985,-0.233 -0.146,0.149 0.356,2.076 0.754,2.839 0.545,1.06 1.655,2.097 2.871,2.712 l 1.027,0.487 -1.215,0.021 c -1.173,0 -1.215,0.021 -1.089,0.467 0.419,1.377 2.074,2.839 3.918,3.475 l 1.299,0.444 -1.131,0.678 c -1.676,0.976 -3.646,1.526 -5.616,1.567 -0.944,0.021 -1.719,0.106 -1.719,0.17 0,0.211 2.557,1.397 4.044,1.864 4.463,1.377 9.765,0.783 13.746,-1.568 2.829,-1.674 5.657,-5 6.978,-8.221 0.713,-1.715 1.425,-4.851 1.425,-6.354 0,-0.975 0.063,-1.102 1.236,-2.267 0.692,-0.678 1.341,-1.419 1.467,-1.631 0.21,-0.403 0.188,-0.403 -0.88,-0.043 -1.781,0.636 -2.033,0.551 -1.152,-0.402 0.649,-0.678 1.425,-1.907 1.425,-2.267 0,-0.063 -0.314,0.042 -0.671,0.233 -0.377,0.212 -1.215,0.53 -1.844,0.72 l -1.131,0.361 -1.027,-0.7 c -0.566,-0.381 -1.361,-0.805 -1.781,-0.932 -1.069,-0.296 -2.704,-0.254 -3.668,0.085 z m -4.167,41.717 c -16.568,0 -30,-13.432 -30,-30 0,-16.569 13.432,-30 30,-30 16.568,0 30,13.431 30,30 0,16.568 -13.432,30 -30,30 z"
         inkscape:connector-curvature="0" />
    </g>
  </g>
</svg>
